<?xml version="1.0" encoding="UTF-8"?>
<svg id="Capa_1" xmlns="http://www.w3.org/2000/svg" version="1.1" viewBox="0 0 1000 405.7">
  <!-- Generator: Adobe Illustrator 29.6.1, SVG Export Plug-In . SVG Version: 2.1.1 Build 9)  -->
  <defs>
    <style>
      .st0 {
        fill: #df3719;
      }
    </style>
  </defs>
  <path class="st0" d="M476.1,298c-1.1-.6-2.3-.9-3.6-.9s-2.5.3-3.6.9c-.7.4-1.3,1-1.8,1.6v-11.2h-4.2v27.3h4.2v-10.5c0-.8.2-1.5.5-2.2.4-.6.8-1.1,1.5-1.5.6-.4,1.4-.5,2.2-.5,1.2,0,2.2.4,3,1.2s1.2,1.8,1.2,3v10.5h4.2v-11.4c0-1.4-.3-2.7-.9-3.7-.6-1.1-1.4-1.9-2.5-2.5Z"/>
  <path class="st0" d="M497,299.6c-.5-.6-1.1-1.2-1.9-1.6-1.1-.6-2.3-.9-3.7-.9s-3.1.4-4.5,1.3c-1.3.8-2.4,2-3.2,3.4-.8,1.4-1.2,3-1.2,4.8s.4,3.4,1.2,4.8c.8,1.4,1.8,2.6,3.2,3.4,1.3.8,2.8,1.3,4.5,1.3s2.6-.3,3.7-.9c.7-.4,1.3-1,1.9-1.6v2.1h4.2v-18.2h-4.2v2.1ZM495.8,310.6c-.9,1-2.2,1.6-3.7,1.6s-1.9-.2-2.7-.7c-.8-.5-1.4-1.1-1.8-2-.4-.8-.7-1.8-.7-2.9s.2-2,.7-2.9c.4-.8,1-1.5,1.8-2,.8-.5,1.7-.7,2.7-.7s1.9.2,2.7.7c.8.5,1.4,1.1,1.8,2,.4.8.6,1.8.6,2.9,0,1.6-.5,2.9-1.4,4Z"/>
  <path class="st0" d="M519.1,298.2c-1.1-.7-2.3-1-3.6-1s-2.6.3-3.6.9c-.7.4-1.3,1-1.8,1.6v-2.1h-4.2v18.2h4.2v-10.5c0-.8.2-1.5.5-2.2s.8-1.1,1.5-1.5c.6-.4,1.4-.5,2.2-.5,1.2,0,2.2.4,3,1.2.8.8,1.2,1.8,1.2,3v10.5h4.2v-11.4c0-1.2-.3-2.3-.9-3.4-.6-1.1-1.4-2-2.5-2.7Z"/>
  <path class="st0" d="M539.9,299.6c-.5-.6-1.1-1.2-1.9-1.6-1.1-.6-2.3-.9-3.7-.9s-3.1.4-4.5,1.3-2.4,2-3.2,3.4c-.8,1.4-1.2,3-1.2,4.8s.4,3.4,1.2,4.8c.8,1.4,1.8,2.6,3.2,3.4s2.8,1.3,4.5,1.3,2.6-.3,3.7-.9c.7-.4,1.3-1,1.9-1.6v2.1h4.2v-27.3h-4.2v11.2ZM537.7,311.4c-.8.5-1.7.7-2.7.7s-1.9-.2-2.7-.7c-.8-.5-1.4-1.1-1.8-2-.4-.8-.7-1.8-.7-2.9s.2-2,.7-2.9c.4-.8,1.1-1.5,1.8-2,.8-.5,1.7-.7,2.7-.7s1.9.2,2.7.7c.8.5,1.4,1.1,1.8,2,.4.8.6,1.8.6,2.9s-.2,2-.6,2.9c-.4.8-1,1.5-1.8,2Z"/>
  <path class="st0" d="M561.7,299.5c-.5-.6-1.1-1.1-1.8-1.5-1.1-.6-2.4-.9-3.8-.9s-3.1.4-4.4,1.2-2.3,1.9-3.1,3.2-1.1,2.9-1.1,4.6.4,3.3,1.1,4.7,1.8,2.5,3.1,3.3,2.8,1.2,4.4,1.2,2.7-.3,3.8-.9c.7-.4,1.3-.9,1.9-1.5v2c0,1.5-.5,2.6-1.4,3.5-1,.8-2.3,1.3-3.9,1.3s-2.4-.2-3.4-.7-1.8-1.1-2.5-2l-2.7,2.7c.9,1.3,2,2.2,3.5,2.9,1.4.7,3.1,1,5,1s3.6-.4,5-1.1c1.4-.7,2.6-1.8,3.4-3.1s1.2-2.8,1.2-4.6v-17.5h-4.2v2ZM559.6,310.7c-.8.4-1.6.6-2.7.6s-1.9-.2-2.7-.6c-.8-.4-1.4-1-1.8-1.8-.4-.8-.6-1.7-.6-2.7s.2-1.9.6-2.7c.4-.8,1-1.4,1.8-1.8.8-.4,1.7-.6,2.7-.6s1.9.2,2.7.6c.8.4,1.3,1,1.8,1.8.4.8.6,1.7.6,2.7s-.2,1.9-.6,2.7c-.4.8-1,1.4-1.8,1.8Z"/>
  <path class="st0" d="M583.3,298.3c-1.3-.8-2.8-1.2-4.5-1.2s-3.3.4-4.8,1.3c-1.4.8-2.6,2-3.4,3.4-.8,1.4-1.3,3-1.3,4.8s.4,3.4,1.3,4.9c.8,1.4,2,2.6,3.5,3.4,1.5.8,3.1,1.2,4.9,1.2s2.8-.3,4-.8c1.3-.5,2.3-1.3,3.2-2.4l-2.7-2.7c-.6.6-1.2,1.1-2,1.4-.8.3-1.7.5-2.6.5s-2-.2-2.9-.7c-.8-.5-1.5-1.1-1.9-2-.2-.4-.4-.9-.5-1.3h13.6c0-.4.1-.7.2-1,0-.3,0-.6,0-.9,0-1.7-.4-3.3-1.1-4.7-.7-1.4-1.8-2.4-3.1-3.2ZM574.1,303.5c.4-.8,1-1.5,1.8-1.9s1.7-.7,2.8-.7,1.9.2,2.6.6c.7.4,1.2,1,1.6,1.7s.4.9.5,1.4h-9.7c.1-.4.2-.8.4-1.2Z"/>
  <path class="st0" d="M615.7,298c-1.1-.6-2.3-.8-3.6-.8s-2.5.3-3.5.9c-1,.5-1.8,1.3-2.5,2.2-.6-.9-1.4-1.7-2.4-2.2-1-.6-2.2-.8-3.5-.8s-2.5.3-3.5.9c-.7.4-1.2.9-1.7,1.5v-1.9h-4.2v18.2h4.2v-10.9c0-.8.2-1.5.5-2.1.4-.6.8-1,1.4-1.3s1.3-.5,2-.5c1.1,0,2,.3,2.8,1,.8.7,1.1,1.6,1.1,2.8v10.9h4.2v-10.9c0-.8.2-1.5.5-2.1.4-.6.8-1,1.4-1.3.6-.3,1.3-.5,2-.5,1.1,0,2,.3,2.8,1,.8.7,1.1,1.6,1.1,2.8v10.9h4.2v-11.8c0-1.4-.3-2.6-.9-3.6-.6-1-1.5-1.8-2.5-2.4Z"/>
  <path class="st0" d="M636.7,299.6c-.5-.6-1.1-1.2-1.9-1.6-1.1-.6-2.3-.9-3.7-.9s-3.1.4-4.5,1.3c-1.3.8-2.4,2-3.2,3.4-.8,1.4-1.2,3-1.2,4.8s.4,3.4,1.2,4.8c.8,1.4,1.8,2.6,3.2,3.4,1.3.8,2.8,1.3,4.5,1.3s2.6-.3,3.7-.9c.7-.4,1.3-1,1.9-1.6v2.1h4.2v-18.2h-4.2v2.1ZM635.5,310.6c-.9,1-2.2,1.6-3.7,1.6s-1.9-.2-2.7-.7c-.8-.5-1.4-1.1-1.8-2-.4-.8-.7-1.8-.7-2.9s.2-2,.7-2.9c.4-.8,1-1.5,1.8-2,.8-.5,1.7-.7,2.7-.7s1.9.2,2.7.7c.8.5,1.4,1.1,1.8,2,.4.8.6,1.8.6,2.9,0,1.6-.5,2.9-1.4,4Z"/>
  <path class="st0" d="M658.7,299.6c-.5-.6-1.1-1.2-1.9-1.6-1.1-.6-2.3-.9-3.7-.9s-3.1.4-4.5,1.3c-1.3.8-2.4,2-3.2,3.4-.8,1.4-1.2,3-1.2,4.8s.4,3.4,1.2,4.8c.8,1.4,1.8,2.6,3.2,3.4,1.3.8,2.8,1.3,4.5,1.3s2.6-.3,3.7-.9c.7-.4,1.3-1,1.9-1.6v2.1h4.2v-18.2h-4.2v2.1ZM657.6,310.6c-.9,1-2.2,1.6-3.7,1.6s-1.9-.2-2.7-.7c-.8-.5-1.4-1.1-1.8-2-.4-.8-.7-1.8-.7-2.9s.2-2,.7-2.9c.4-.8,1-1.5,1.8-2,.8-.5,1.7-.7,2.7-.7s1.9.2,2.7.7c.8.5,1.4,1.1,1.8,2,.4.8.6,1.8.6,2.9,0,1.6-.5,2.9-1.4,4Z"/>
  <polygon class="st0" points="684 297.5 679.1 297.5 671.7 306.1 671.7 288.4 667.5 288.4 667.5 315.7 671.7 315.7 671.7 306.8 679.1 315.7 684.4 315.7 676.4 306.2 684 297.5"/>
  <polygon class="st0" points="692.6 289.9 688.5 289.9 688.5 297.5 684.1 297.5 684.1 301.3 688.5 301.3 688.5 315.7 692.6 315.7 692.6 301.3 697 301.3 697 297.5 692.6 297.5 692.6 289.9"/>
  <path class="st0" d="M712.3,298.3c-1.3-.8-2.8-1.2-4.5-1.2s-3.3.4-4.8,1.3c-1.4.8-2.6,2-3.4,3.4-.8,1.4-1.3,3-1.3,4.8s.4,3.4,1.3,4.9c.8,1.4,2,2.6,3.5,3.4,1.5.8,3.1,1.2,4.9,1.2s2.8-.3,4-.8c1.3-.5,2.3-1.3,3.2-2.4l-2.7-2.7c-.6.6-1.2,1.1-2,1.4-.8.3-1.7.5-2.6.5s-2-.2-2.9-.7c-.8-.5-1.5-1.1-1.9-2-.2-.4-.4-.9-.5-1.3h13.6c0-.4.1-.7.2-1,0-.3,0-.6,0-.9,0-1.7-.4-3.3-1.1-4.7-.7-1.4-1.8-2.4-3.1-3.2ZM703.1,303.5c.4-.8,1-1.5,1.8-1.9.8-.5,1.7-.7,2.8-.7s1.9.2,2.6.6c.7.4,1.2,1,1.6,1.7.2.4.4.9.5,1.4h-9.7c.1-.4.2-.8.4-1.2Z"/>
  <path class="st0" d="M740.6,299.6c-.5-.6-1.1-1.2-1.9-1.6-1.1-.6-2.3-.9-3.7-.9s-3.1.4-4.5,1.3c-1.3.8-2.4,2-3.2,3.4-.8,1.4-1.2,3-1.2,4.8s.4,3.4,1.2,4.8c.8,1.4,1.8,2.6,3.2,3.4,1.3.8,2.8,1.3,4.5,1.3s2.6-.3,3.7-.9c.7-.4,1.3-1,1.9-1.6v2.1h4.2v-18.2h-4.2v2.1ZM739.4,310.6c-.9,1-2.2,1.6-3.7,1.6s-1.9-.2-2.7-.7c-.8-.5-1.4-1.1-1.8-2-.4-.8-.7-1.8-.7-2.9s.2-2,.7-2.9c.4-.8,1-1.5,1.8-2,.8-.5,1.7-.7,2.7-.7s1.9.2,2.7.7c.8.5,1.4,1.1,1.8,2,.4.8.6,1.8.6,2.9,0,1.6-.5,2.9-1.4,4Z"/>
  <path class="st0" d="M758.3,297.1c-2.1,0-3.6.7-4.6,2.1,0,0,0,.1,0,.2v-1.9h-4.2v18.2h4.2v-10.1c0-1.6.4-2.7,1.1-3.5.8-.7,1.7-1.1,2.9-1.1s1,0,1.4.2c.4.2.8.4,1.1.8l2.7-2.8c-.6-.7-1.3-1.3-2-1.6-.7-.3-1.6-.5-2.5-.5Z"/>
  <polygon class="st0" points="771.9 289.9 767.7 289.9 767.7 297.5 763.3 297.5 763.3 301.3 767.7 301.3 767.7 315.7 771.9 315.7 771.9 301.3 776.2 301.3 776.2 297.5 771.9 297.5 771.9 289.9"/>
  <rect class="st0" x="779.3" y="297.5" width="4.2" height="18.2"/>
  <path class="st0" d="M781.4,289.1c-.7,0-1.3.2-1.8.7-.5.5-.7,1.1-.7,1.8s.2,1.3.7,1.8c.5.5,1.1.7,1.8.7s1.3-.2,1.8-.7c.5-.5.7-1.1.7-1.8s-.2-1.3-.7-1.8c-.5-.5-1-.7-1.8-.7Z"/>
  <polygon class="st0" points="804.6 297.5 799.7 297.5 792.3 306.1 792.3 288.4 788.1 288.4 788.1 315.7 792.3 315.7 792.3 306.8 799.7 315.7 805 315.7 797 306.2 804.6 297.5"/>
  <path class="st0" d="M819.4,298.3c-1.3-.8-2.8-1.2-4.5-1.2s-3.3.4-4.8,1.3c-1.4.8-2.6,2-3.4,3.4-.8,1.4-1.3,3-1.3,4.8s.4,3.4,1.3,4.9c.8,1.4,2,2.6,3.5,3.4,1.5.8,3.1,1.2,4.9,1.2s2.8-.3,4-.8c1.3-.5,2.3-1.3,3.2-2.4l-2.7-2.7c-.6.6-1.2,1.1-2,1.4-.8.3-1.7.5-2.6.5s-2-.2-2.9-.7c-.8-.5-1.5-1.1-1.9-2-.2-.4-.4-.9-.5-1.3h13.6c0-.4.1-.7.2-1,0-.3,0-.6,0-.9,0-1.7-.4-3.3-1.1-4.7-.7-1.4-1.8-2.4-3.1-3.2ZM810.2,303.5c.4-.8,1-1.5,1.8-1.9s1.7-.7,2.8-.7,1.9.2,2.6.6c.7.4,1.2,1,1.6,1.7s.4.9.5,1.4h-9.7c.1-.4.2-.8.4-1.2Z"/>
  <rect class="st0" x="826.9" y="288.4" width="4.2" height="27.3"/>
  <path class="st0" d="M848.4,298.3c-1.3-.8-2.8-1.2-4.5-1.2s-3.3.4-4.8,1.3c-1.4.8-2.6,2-3.4,3.4-.8,1.4-1.3,3-1.3,4.8s.4,3.4,1.3,4.9c.8,1.4,2,2.6,3.5,3.4,1.5.8,3.1,1.2,4.9,1.2s2.8-.3,4-.8c1.3-.5,2.3-1.3,3.2-2.4l-2.7-2.7c-.6.6-1.2,1.1-2,1.4-.8.3-1.7.5-2.6.5s-2-.2-2.9-.7c-.8-.5-1.5-1.1-1.9-2-.2-.4-.4-.9-.5-1.3h13.6c0-.4.1-.7.2-1,0-.3,0-.6,0-.9,0-1.7-.4-3.3-1.1-4.7-.7-1.4-1.8-2.4-3.1-3.2ZM839.3,303.5c.4-.8,1-1.5,1.8-1.9s1.7-.7,2.8-.7,1.9.2,2.6.6c.7.4,1.2,1,1.6,1.7s.4.9.5,1.4h-9.7c.1-.4.2-.8.4-1.2Z"/>
  <path class="st0" d="M869.2,298.2c-1.1-.7-2.3-1-3.6-1s-2.5.3-3.6.9c-.7.4-1.3,1-1.8,1.6v-2.1h-4.2v18.2h4.2v-10.5c0-.8.2-1.5.5-2.2.4-.6.8-1.1,1.5-1.5s1.4-.5,2.2-.5c1.2,0,2.2.4,3,1.2.8.8,1.2,1.8,1.2,3v10.5h4.2v-11.4c0-1.2-.3-2.3-.9-3.4-.6-1.1-1.4-2-2.5-2.7Z"/>
  <polygon class="st0" points="130.9 99 97.5 99 97.5 271.7 122.1 271.7 130.9 271.7 210 271.7 210 242 130.9 242 130.9 99"/>
  <path class="st0" d="M240.7,133.9c5.4,0,9.8-1.8,13.1-5.3,3.4-3.5,5-7.9,5-13.1s-1.7-9.4-5-13c-3.4-3.6-7.7-5.4-13.1-5.4s-9.6,1.8-13,5.4-5.2,7.9-5.2,13,1.7,9.6,5.2,13.1c3.4,3.5,7.8,5.3,13,5.3Z"/>
  <path class="st0" d="M256.9,153h-32.4v118.7h15.5c.1-.6.3-1.3.5-2l.7-2.3c4.5-14.9,9-30.2,15.7-44.8v-69.7Z"/>
  <path class="st0" d="M494.4,210.5l43.5,57.9h39.3l-49-62.2,46.6-56.4h-37.1l-43.2,54.4v-113.4h-32.2v58.9c2.7,3.1,5.1,6.6,7.1,10.5,10.2,19.7,8.6,44.5,5.4,61.9-2.9,15.9-7.8,30.4-12.5,41.1v5.3h32.2v-57.9Z"/>
  <path class="st0" d="M646.1,178c2.5,1,4.7,2.5,6.5,4.4l20.1-23.1c-3.8-4.3-7.9-7.3-12.5-9.2-4.6-1.9-9.7-2.8-15.5-2.8-13.3,0-23.4,4.2-30.5,12.7,0,.1-.2.2-.2.4v-10.6h-32.2v118.7h32.2v-65.6c0-8.8,2.2-15.4,6.5-19.8,4.3-4.3,9.9-6.5,16.8-6.5s6.2.5,8.7,1.5Z"/>
  <path class="st0" d="M758.7,268.4h31.9v-118.7h-31.9v11.4c-3.3-3.5-7.1-6.4-11.5-8.7-6.7-3.4-14.3-5.2-22.8-5.2s-20.6,2.7-29.2,8.1c-8.7,5.4-15.5,12.8-20.4,22.1-4.9,9.3-7.4,19.9-7.4,31.7s2.5,22.1,7.4,31.4c4.9,9.3,11.7,16.7,20.4,22.1,8.7,5.4,18.4,8.1,29.2,8.1s16.1-1.8,22.8-5.3c4.5-2.3,8.3-5.3,11.5-8.8v11.6ZM752.1,232.2c-5.6,6-12.9,9-21.9,9s-11.1-1.4-15.6-4.1c-4.5-2.7-8-6.5-10.6-11.3-2.5-4.8-3.8-10.4-3.8-16.8s1.3-11.8,3.8-16.6c2.5-4.8,6.1-8.6,10.6-11.3,4.5-2.7,9.7-4.1,15.6-4.1s11.3,1.4,15.8,4.1c4.5,2.7,8,6.5,10.6,11.3,2.5,4.8,3.8,10.4,3.8,16.6,0,9.5-2.8,17.2-8.3,23.2Z"/>
  <path class="st0" d="M860.9,138.4c0-5.9,1.6-10.4,4.8-13.6,3.2-3.2,7.7-4.8,13.6-4.8s6,.5,8.1,1.5c2.1,1,4.1,2.4,5.9,4.2l20.4-20.6c-4.4-4.6-9.4-8.2-15-10.8-5.6-2.6-12.2-3.9-19.9-3.9s-19,2.1-26.5,6.4c-7.5,4.3-13.3,10-17.4,17.3-4.1,7.3-6.1,15.7-6.1,25.2v12.8h-27.5v28.3h27.5v90.4h32.2v-90.4h35.1v-28.3h-35.1v-13.5Z"/>
  <path class="st0" d="M461.4,165.9c-16.3-30.1-61.9-37.8-83.9-3.2-21-4.6-41.9,2.1-55.7,18.5-37.8-11.7-64.9,56.3-72.8,90-4.1,13,16.5,19.4,20.3,6.1,8.7-26.4,14.5-55.7,37-73.4-14.6,26.2-15.9,64.4,19.8,67.1,40.7-.9,36.8-55.7,14-78.5,7.4-7.6,16.8-10.8,27.9-9.8-12.4,27.8-6.1,88.3,35.3,72,30.1-17.8,19.6-65.6-6.3-83.3,12.6-17,37.3-11,45.4,4.2,11.4,22,.5,65.6-11.4,87.4-2.8,5.1-.9,11.6,4.2,14.4,25.8,11.7,42.9-88.1,26.1-111.6ZM335.8,240.8c-1,12.9-16.9,10-17.5,2.4-1.7-7.7,1.6-19.1,7.1-29.8,7.2-6.5,12.4,23.7,10.4,27.3ZM398.9,229.1c-13.4,25.7-20.2-24.8-13-35.5.8-1.4,2.7-1.7,3.8-.5,8.6,9.6,13.1,24.2,9.2,36Z"/>
</svg>