<?xml version="1.0" encoding="UTF-8"?>
<svg id="Capa_1" xmlns="http://www.w3.org/2000/svg" version="1.1" viewBox="0 0 1000 1000">
  <!-- Generator: Adobe Illustrator 29.4.0, SVG Export Plug-In . SVG Version: 2.1.0 Build 152)  -->
  <defs>
    <style>
      .st0 {
        fill: #f2b700;
      }

      .st1 {
        fill: #fffaf8;
      }

      .st2 {
        fill: #f2b703;
      }
    </style>
  </defs>
  <path class="st1" d="M805.5,283.6c-30.7-25.6-68.1-40.4-106.1-42.1-27.5-47.6-76.2-74.5-136.2-74.5-25.9,0-53.8,5.5-81.4,15.7-1.6.6-26-16.4-29.9-18.2-11.2-5.1-22.5-9.4-34.6-12-37.1-7.8-73.4.9-106.9,17.3-25.9,12.8-50,29.8-70.2,46.5-94,77.7-171.8,224-133.7,376l.2,1c14.6,86.2,59.8,155.5,130.7,200.4,58.5,37.1,133.2,56.7,216,56.7s102.9-7.3,153.7-21.7c65.1-16.7,183.9-59.4,248.5-157,79.3-118.7,56.4-296.4-50.3-388.1Z"/>
  <g>
    <path class="st0" d="M453.7,800c-72,0-138.1-16.5-189.1-48.9-58.5-37.1-95.8-94.6-108-166.3l-.7-3.5c-33.4-130.9,34.4-258.3,116.6-326.2,57.8-47.8,117.6-64.4,160.1-44.5,12.2,5.7,25.5,15.7,35.8,33.1,31.7-16.8,64.7-26.3,95-26.4,52.5,0,90.3,28.2,103.9,77.1,36.2-8,74.6,1.7,105.9,27.8,88.1,75.7,106.6,222.8,40.7,321.5-55.3,83.7-161,121.3-219.1,136.2-47.8,13.4-95.6,20.1-141.1,20.1ZM393.9,235.6c-28.6,0-65.3,16-100.4,45-74.1,61.3-135.4,175.7-105.4,293.3l1,4.6c0,.2,0,.4.1.5,10.7,63.2,42,111.7,93.1,144.1,74.3,47.1,190.7,56.6,303.9,24.8,53.8-13.8,150.9-48,200.1-122.6,57.1-85.5,41.3-212.8-34.6-278-24-20-52.5-27.1-79.4-20.4,4.9,82.8-29.9,231.6-121.4,252.9-1.3.3-2.5.5-3.9.4-23.5,0-40.2-17.6-43.6-46-3.3-85.4,68.2-191.5,132.6-228.3-10.9-45.7-44.7-55.7-72.3-55.7h-.4c-26,0-54.9,8.8-82.7,24.1,3.5,13.5,5.5,29.5,5.6,48.6-1.4,45.7-27.9,145.9-75.5,184.7-16.7,13.6-35.3,19.1-53.9,15.9-1.2-.2-2.4-.5-3.5-1-27.3-11.3-34.5-51-29.7-83.1,9.7-74.1,58.2-138.5,116.3-178.7-5.1-8.7-12.2-15.9-21.6-20.4-7.2-3.4-15.5-5-24.6-5ZM640.1,343c-51.6,37.1-106,122.6-103.5,188.9,1.1,9,4.2,14.5,9.2,15.4,60.5-16.5,95.2-125.3,94.3-204.3ZM364.9,491.5c8.3.7,16.6-2.2,25.2-9.2,38.7-31.6,62.2-122,63.3-159.6,0-9.1-.6-19.1-2.2-28.9-47.4,35.5-86.6,89.7-94.6,150.5-3.1,20.2,1,42,8.3,47.2Z"/>
    <path class="st2" d="M289.4,321.4c-38.8,51.5-62,113.1-68,177.2-5.3,56.8-1.5,136.7,61.9,159.1,20.1,7.1,28.7-24.8,8.8-31.9-25.8-9.1-34.2-38.2-37.2-62.7-3.2-26.6-2.5-54.2,1.6-80.7,8.2-52.7,29.5-101.8,61.5-144.4,12.8-17-15.9-33.5-28.5-16.7h0Z"/>
    <path class="st2" d="M338.3,712.2c21.3,0,21.3-33.1,0-33.1s-21.3,33.1,0,33.1h0Z"/>
    <path class="st2" d="M725.4,409.8c21.3,0,21.3-33.1,0-33.1s-21.3,33.1,0,33.1h0Z"/>
    <path class="st2" d="M771.3,479.9c21.3,0,21.3-33.1,0-33.1s-21.3,33.1,0,33.1h0Z"/>
    <path class="st2" d="M713.3,470.2c21.3,0,21.3-33.1,0-33.1s-21.3,33.1,0,33.1h0Z"/>
    <path class="st2" d="M543.9,317.8c21.3,0,21.3-33.1,0-33.1s-21.3,33.1,0,33.1h0Z"/>
    <path class="st2" d="M594.7,712.2c21.3,0,21.3-33.1,0-33.1s-21.3,33.1,0,33.1h0Z"/>
    <path class="st2" d="M511.3,667.4c21.3,0,21.3-33.1,0-33.1s-21.3,33.1,0,33.1h0Z"/>
    <path class="st2" d="M529.4,736.4c21.3,0,21.3-33.1,0-33.1s-21.3,33.1,0,33.1h0Z"/>
  </g>
</svg>